# xmcd
#
# Track frame offsets:
# 150
# 9982
# 18016
# 33842
# 47320
# 57948
# 73249
# 84366
# 94026
# 104473
# 112637
# 128033
# 135851
# 149266
# 159715
# 171440
# 181279
#
# Disc length: 2547 seconds
#
#
# Revision: 0
# Processed by: cddbd v1.5.2PL0 Copyright (c) Steve Scherf et al.
# Submitted via: FreeRIP 2.942 
#
DISCID=cb09f111
DTITLE=varios - pula fogueira
DYEAR=2008
DGENRE=sertanejo
TTITLE0=anarrie no arraia
TTITLE1=la vem são joão
TTITLE2=marcando a quadrilha
TTITLE3=noites de junho
TTITLE4=estou solteiro
TTITLE5=são joão chegou
TTITLE6=sanfonero rico
TTITLE7=mais uma ilusão
TTITLE8=embriagado
TTITLE9=musica do carroussel
TTITLE10=saudade do sertão
TTITLE11=prece a santo antonio
TTITLE12=quarto centenario
TTITLE13=quero respeito
TTITLE14=mirador
TTITLE15=vem amor
TTITLE16=serelepe
EXTD=razoavel
EXTT0=
EXTT1=
EXTT2=
EXTT3=
EXTT4=
EXTT5=
EXTT6=
EXTT7=
EXTT8=
EXTT9=
EXTT10=
EXTT11=
EXTT12=
EXTT13=
EXTT14=
EXTT15=
EXTT16=
PLAYORDER=
